<?xml version="1.0" encoding="UTF-8"?>
<svg viewBox="0 0 50 40" version="1.1" xmlns="http://www.w3.org/2000/svg" xmlns:xlink="http://www.w3.org/1999/xlink">
    <g id="Symbols" stroke="none" stroke-width="1" fill="none" fill-rule="evenodd">
        <g id="#2-BIO" transform="translate(0.000000, -279.000000)" fill="#FFA658">
            <g transform="translate(0.000000, 8.000000)" id="bio_sideImage">
                <g>
                    <path d="M22.4272931,301.883191 C22.4272931,304.314352 21.4671983,306.441586 19.5469799,308.264957 C17.6267615,310.088328 15.3616834,311 12.7516779,311 C8.65024049,311 5.49963814,309.613499 3.29977629,306.840456 C1.09991443,304.067413 -5.68434189e-14,300.230794 -5.68434189e-14,295.330484 C-5.68434189e-14,290.772057 1.89222567,286.175712 5.67673378,281.541311 C9.46124189,276.906909 14.0193619,273.393174 19.3512304,271 L21.8120805,275.045584 C17.5987858,277.134863 14.2990425,279.565988 11.9127517,282.339031 C9.52646085,285.112075 8.14690716,288.473864 7.77404922,292.424501 L10.9060403,292.424501 C13.2177595,292.424501 15.1006639,292.690406 16.5548098,293.222222 C18.0089558,293.754039 19.1834407,294.494772 20.0782998,295.444444 C20.935873,296.35613 21.5417581,297.362768 21.8959732,298.464387 C22.2501882,299.566007 22.4272931,300.705597 22.4272931,301.883191 L22.4272931,301.883191 Z M47.1196868,308.264957 C45.1994684,310.088328 42.9343904,311 40.3243848,311 C36.2229474,311 33.0723451,309.613499 30.8724832,306.840456 C28.6726214,304.067413 27.5727069,300.230794 27.5727069,295.330484 C27.5727069,290.772057 29.4649326,286.175712 33.2494407,281.541311 C37.0339488,276.906909 41.5920688,273.393174 46.9239374,271 L49.3847875,275.045584 C45.1714927,277.134863 41.8717494,279.565988 39.4854586,282.339031 C37.0991678,285.112075 35.7196141,288.473864 35.3467562,292.424501 L38.4787472,292.424501 C40.7904664,292.424501 42.6733708,292.690406 44.1275168,293.222222 C45.5816628,293.754039 46.7561477,294.494772 47.6510067,295.444444 C48.50858,296.35613 49.114465,297.362768 49.4686801,298.464387 C49.8228951,299.566007 50,300.705597 50,301.883191 C50,304.314352 49.0399052,306.441586 47.1196868,308.264957 Z" id="“"></path>
                </g>
            </g>
        </g>
    </g>
</svg>
