<?xml version="1.0" encoding="UTF-8"?>
<svg viewBox="0 0 50 40" version="1.1" xmlns="http://www.w3.org/2000/svg" xmlns:xlink="http://www.w3.org/1999/xlink">
    <!-- Generator: Sketch 47.1 (45422) - http://www.bohemiancoding.com/sketch -->
    <title>“</title>
    <g id="Symbols" stroke="none" stroke-width="1" fill="none" fill-rule="evenodd">
        <g id="#2-BIO" transform="translate(-1243.000000, -925.000000)" fill="#FFA658">
            <g transform="translate(0.000000, 8.000000)" id="bio_sideImage">
                <g>
                    <path d="M1262.54698,954.264957 C1260.62676,956.088328 1258.36168,957 1255.75168,957 C1251.65024,957 1248.49964,955.613499 1246.29978,952.840456 C1244.09991,950.067413 1243,946.230794 1243,941.330484 C1243,936.772057 1244.89223,932.175712 1248.67673,927.541311 C1252.46124,922.906909 1257.01936,919.393174 1262.35123,917 L1264.81208,921.045584 C1260.59879,923.134863 1257.29904,925.565988 1254.91275,928.339031 C1252.52646,931.112075 1251.14691,934.473864 1250.77405,938.424501 L1253.90604,938.424501 C1256.21776,938.424501 1258.10066,938.690406 1259.55481,939.222222 C1261.00896,939.754039 1262.18344,940.494772 1263.0783,941.444444 C1263.93587,942.35613 1264.54176,943.362768 1264.89597,944.464387 C1265.25019,945.566007 1265.42729,946.705597 1265.42729,947.883191 C1265.42729,950.314352 1264.4672,952.441586 1262.54698,954.264957 Z M1290.11969,954.264957 C1288.19947,956.088328 1285.93439,957 1283.32438,957 C1279.22295,957 1276.07235,955.613499 1273.87248,952.840456 C1271.67262,950.067413 1270.57271,946.230794 1270.57271,941.330484 C1270.57271,936.772057 1272.46493,932.175712 1276.24944,927.541311 C1280.03395,922.906909 1284.59207,919.393174 1289.92394,917 L1292.38479,921.045584 C1288.17149,923.134863 1284.87175,925.565988 1282.48546,928.339031 C1280.09917,931.112075 1278.71961,934.473864 1278.34676,938.424501 L1281.47875,938.424501 C1283.79047,938.424501 1285.67337,938.690406 1287.12752,939.222222 C1288.58166,939.754039 1289.75615,940.494772 1290.65101,941.444444 C1291.50858,942.35613 1292.11447,943.362768 1292.46868,944.464387 C1292.8229,945.566007 1293,946.705597 1293,947.883191 C1293,950.314352 1292.03991,952.441586 1290.11969,954.264957 Z" id="“" transform="translate(1268.000000, 937.000000) rotate(-180.000000) translate(-1268.000000, -937.000000) "></path>
                </g>
            </g>
        </g>
    </g>
</svg>
